PathFileType	4	(X/Y/Z)	P:\Projects\LMB_grand_challenge_database\project_only\opensim\experimental_data\SixthCompetition/DM_ngait_og1_new.trc
DataRate	CameraRate	NumFrames	NumMarkers	Units	OrigDataRate	OrigDataStartFrame	OrigNumFrames
120	120	7	68	mm	120	285	381
Frame#	Time	Sternum			Neck			R_Shoulder			L_Shoulder			Xiphoid			Thoracic			R_Asis			L_Asis			R_Psis			L_Psis			Lumbar			R_Elbow			R_ElbowMedial			R_ShoulderAnterior			R_ShoulderPosterior			R_Wrist			R_Radius			R_Ulna			L_Elbow			L_ElbowMedial			L_ShoulderAnterior			L_ShoulderPosterior			L_Wrist			L_Ulna			L_Radius			L_Thigh_Superior			L_Thigh_Inferior			L_Thigh_Lateral			L_Knee_Lateral			L_Knee_Medial			L_Patella			L_Shank_Superior			L_Shank_Inferior			L_Shank_Lateral			L_Ankle_Lateral			L_Ankle_Medial			R_Thigh_Superior			R_Thigh_Inferior			R_Thigh_Lateral			R_Knee_Lateral			R_Knee_Medial			R_Patella			R_Shank_Superior			R_Shank_Inferior			R_Shank_Lateral			R_Ankle_Lateral			RankleMedial			R_Heel			R_Toe			R_Midfoot_Medial			R_Midfoot_Lateral			R_Hindfoot			R_Midfoot_Superior			R_ToeMedial			R_ToeLateral			L_Heel			L_Toe			L_Midfoot_Medial			L_Midfoot_Lateral			L_Hindfoot			L_Midfoot_Superior			L_ToeMedial			L_ToeLateral			Oglobal			Sacral			Xglobal			Yglobal			Zglobal			
		X1	Y1	Z1	X2	Y2	Z2	X3	Y3	Z3	X4	Y4	Z4	X5	Y5	Z5	X6	Y6	Z6	X7	Y7	Z7	X8	Y8	Z8	X9	Y9	Z9	X10	Y10	Z10	X11	Y11	Z11	X12	Y12	Z12	X13	Y13	Z13	X14	Y14	Z14	X15	Y15	Z15	X16	Y16	Z16	X17	Y17	Z17	X18	Y18	Z18	X19	Y19	Z19	X20	Y20	Z20	X21	Y21	Z21	X22	Y22	Z22	X23	Y23	Z23	X24	Y24	Z24	X25	Y25	Z25	X26	Y26	Z26	X27	Y27	Z27	X28	Y28	Z28	X29	Y29	Z29	X30	Y30	Z30	X31	Y31	Z31	X32	Y32	Z32	X33	Y33	Z33	X34	Y34	Z34	X35	Y35	Z35	X36	Y36	Z36	X37	Y37	Z37	X38	Y38	Z38	X39	Y39	Z39	X40	Y40	Z40	X41	Y41	Z41	X42	Y42	Z42	X43	Y43	Z43	X44	Y44	Z44	X45	Y45	Z45	X46	Y46	Z46	X47	Y47	Z47	X48	Y48	Z48	X49	Y49	Z49	X50	Y50	Z50	X51	Y51	Z51	X52	Y52	Z52	X53	Y53	Z53	X54	Y54	Z54	X55	Y55	Z55	X56	Y56	Z56	X57	Y57	Z57	X58	Y58	Z58	X59	Y59	Z59	X60	Y60	Z60	X61	Y61	Z61	X62	Y62	Z62	X63	Y63	Z63	X64	Y64	Z64	X65	Y65	Z65	X66	Y66	Z66	X67	Y67	Z67	X68	Y68	Z68	

286	3.125	994.667	1332.45	78.0154	852.91	1439.53	100.929	968.4450000000001	1380.61	254.314	884.105	1376.66	-78.66840000000001	1000.88	1175.03	91.72499999999999	741.674	1257.26	126.982	917.143	957.693	259.471	902.99	952.3099999999999	-17.0491	712.622	1008.31	161.439	706.651	1002.43	84.6467	713.9690000000001	1054.94	123.434	909.667	1083.74	386.794	-0	0	0	-0	0	0	-0	0	0	916.497	797.312	395.796	909.773	812.062	351.645	878.425	821.481	417.287	794.318	1046.83	-147.687	-0	0	0	-0	0	0	-0	0	0	803.604	775.979	-143.967	764.538	797.748	-157.288	812.498	794.026	-100.475	-0	0	0	990.068	600.705	8.03781	1003.23	698.546	20.1545	-0	0	0	-0	0	0	1051.94	525.1559999999999	67.548	986.433	446.466	-2.05534	962.747	177.066	-1.5377	1010.87	302.98	70.4881	-0	0	0	-0	0	0	827.77	774.27	293.037	816.4	557.943	264.389	896.4450000000001	680.242	277.067	-0	0	0	-0	0	0	878.547	444.419	209.423	701.23	427.467	279.753	560.766	275.591	276.467	697.261	314.785	209.822	-0	0	0	-0	0	0	419.095	237.439	223.805	620.091	23.9218	257.751	549.383	49.8158	198.528	536.766	69.98739999999999	313.36	460.828	147.885	288.849	571.556	158.584	241.23	585.562	31.7598	210.812	578.3680000000001	44.1366	302.031	889.311	61.6194	58.4659	1186.77	59.129	37.4198	1111.8	38.366	91.9995	1092.04	35.7339	-20.7332	984.704	28.1293	-4.42556	1049.55	121.219	41.0561	1152.31	40.4418	82.8096	1146.03	40.1796	-12.7812	-0	0	0	709.6369999999999	1005.37	123.043	-200	0	0	-0	0	200	-0	200	0	
287	3.133333	1002.53	1334.47	77.0342	860.7859999999999	1441.41	99.7398	976.7190000000001	1382.62	253.572	891.992	1378.73	-79.51390000000001	1008.91	1177.03	90.82250000000001	749.928	1258.91	125.904	925.222	959.141	257.892	911.146	954.593	-18.6222	720.698	1009.95	159.965	714.705	1004.31	83.07729999999999	722.032	1056.69	122.11	915.5069999999999	1085.7	384.915	-0	0	0	-0	0	0	-0	0	0	920.869	799.2	393.42	913.333	813.296	349.171	883.083	823.472	414.521	805.592	1048.31	-149.35	-0	0	0	-0	0	0	-0	0	0	819.351	777.559	-145.956	779.7329999999999	798.476	-158.797	828.266	795.556	-102.004	-0	0	0	992.4690000000001	599.014	6.15935	1007.72	695.967	17.5868	-0	0	0	-0	0	0	1055.76	524.551	66.20010000000001	988.754	446.098	-3.10812	963.624	177.143	-1.67497	1012.47	303.092	70.1033	-0	0	0	-0	0	0	839.026	774.927	291.777	832.426	558.644	263.074	909.259	682.539	276.311	-0	0	0	-0	0	0	895.203	445.31	208.04	717.5359999999999	431.734	278.015	574.599	282.654	274.518	712.159	318.71	208.584	-0	0	0	-0	0	0	434.534	249.21	220.348	623.037	22.4414	257.693	556.052	55.5111	197.317	542.975	76.6923	311.915	471.098	157.999	286.232	582.974	163.185	239.969	589.99	32.7536	210.538	582.422	46.5022	301.226	889.322	61.6405	58.4931	1186.8	58.9697	37.3464	1111.8	38.4401	92.1644	1092.08	35.5623	-20.57	984.715	28.035	-4.25543	1049.7	121.233	41.0013	1152.32	40.4009	82.7814	1146.07	40.0505	-12.809	-0	0	0	717.702	1007.13	121.521	-200	0	0	-0	0	200	-0	200	0	
288	3.141667	1010.44	1336.62	76.06100000000001	868.549	1443.41	98.7838	984.143	1384.91	252.562	899.7329999999999	1380.74	-80.52670000000001	1016.67	1178.89	89.8573	757.635	1260.7	124.842	933.427	960.477	255.997	919.376	957.001	-20.1997	728.849	1011.68	158.393	722.7809999999999	1006.16	81.4653	730.205	1058.46	120.756	920.986	1087.54	383.155	-0	0	0	-0	0	0	-0	0	0	925.37	801.069	391.117	918.9400000000001	815.328	346.796	887.641	825.349	412.094	816.846	1049.6	-150.825	-0	0	0	-0	0	0	-0	0	0	835.254	779.261	-147.785	793.6559999999999	798.727	-158.879	843.659	797.021	-103.986	-0	0	0	994.913	598.134	4.29697	1012.26	694.273	15.0719	-0	0	0	-0	0	0	1059.2	524.0549999999999	64.8027	991.329	446.294	-4.01944	964.503	177.533	-2.12784	1014.02	303.022	69.69580000000001	-0	0	0	-0	0	0	849.923	775.972	290.503	848.05	559.793	261.923	922.038	685.292	275.83	-0	0	0	-0	0	0	912.914	447.711	207.563	733.832	436.109	276.148	588.848	289.414	272.406	727.533	322.921	207.496	-0	0	0	-0	0	0	450.768	259.217	216.144	625.999	21.5678	258.587	564.5700000000001	60.5233	196.504	549.798	82.7029	310.707	481.892	166.803	283.194	594.961	167.179	239.411	596.579	34.6944	211.235	587.241	49.7749	301.411	889.329	61.6704	58.4749	1186.85	58.8831	37.293	1111.81	38.2719	91.9873	1092.03	35.5848	-20.7406	984.819	28.1493	-4.40261	1049.87	121.234	40.9749	1152.34	40.3932	82.77200000000001	1146.12	39.9549	-12.8144	-0	0	0	725.8150000000001	1008.92	119.929	-200	0	0	-0	0	200	-0	200	0	
289	3.15	1018.1	1338.72	75.1066	876.187	1445.39	97.9456	991.6420000000001	1386.97	251.803	907.575	1382.76	-81.4242	1024.39	1180.9	89.0365	765.47	1262.54	123.787	941.468	961.942	254.401	927.389	959.1950000000001	-21.6896	736.856	1013.41	157.006	730.692	1007.99	79.94710000000001	738.204	1060.23	119.502	926.654	1089.26	381.491	-0	0	0	-0	0	0	-0	0	0	930.167	803.244	389.073	923.562	816.931	344.376	891.9640000000001	827.141	409.59	828.042	1050.95	-152.457	-0	0	0	-0	0	0	-0	0	0	853.707	782.38	-151.222	809.093	799.9059999999999	-160.554	859.817	798.925	-105.831	-0	0	0	997.415	597.7190000000001	2.11684	1016.53	693.044	12.936	-0	0	0	-0	0	0	1062.42	523.389	63.5046	994.397	446.272	-4.8961	965.004	177.809	-2.28703	1015.25	303.035	69.0806	-0	0	0	-0	0	0	860.297	777.701	288.868	863.679	561.5069999999999	260.948	934.405	687.936	275.208	-0	0	0	-0	0	0	930.0309999999999	450.084	206.799	750.323	440.443	274.669	603.4299999999999	295.576	270.342	742.982	327.023	206.208	-0	0	0	-0	0	0	466.894	267.241	211.329	633.386	24.4581	260.581	575.927	65.5145	196.014	558.278	88.6498	309.617	493.392	174.493	279.627	607.635	171.668	239.345	606.364	38.5858	212.306	594.704	54.8688	301.95	889.357	61.7529	58.5083	1186.88	58.7972	37.2257	1111.85	38.1936	91.8374	1091.97	35.5105	-20.8737	984.814	28.2535	-4.38874	1049.99	121.222	40.8612	1152.36	40.3865	82.71129999999999	1146.17	39.882	-12.8527	-0	0	0	733.774	1010.7	118.477	-200	0	0	-0	0	200	-0	200	0	
290	3.158333	1025.89	1340.97	74.2921	883.875	1447.35	97.05289999999999	999.087	1388.91	251.197	915.309	1384.79	-82.3223	1032.11	1182.81	88.27460000000001	773.221	1264.32	122.729	949.755	963.398	252.474	935.497	961.643	-23.1888	744.96	1015.08	155.581	738.659	1009.87	78.4439	746.307	1061.98	118.296	932.263	1090.98	379.891	-0	0	0	-0	0	0	-0	0	0	935.304	804.899	386.776	928.208	818.484	342.157	896.427	828.9160000000001	407.217	838.842	1052.39	-153.971	-0	0	0	-0	0	0	-0	0	0	868.8579999999999	783.872	-152.448	824.6559999999999	800.617	-161.289	876.004	800.836	-107.569	-0	0	0	1000.32	597.803	-0.2214	1021.04	692.5410000000001	11.0051	-0	0	0	-0	0	0	1065.32	522.7380000000001	62.0504	997.448	446.196	-5.52735	965.056	177.971	-2.29198	1016.81	302.925	68.66079999999999	-0	0	0	-0	0	0	870.466	779.784	287.345	878.9450000000001	563.369	259.871	947.461	691.5650000000001	275.113	-0	0	0	-0	0	0	946.062	451.461	205.535	766.604	444.463	273.366	618.247	301.016	268.138	758.76	331.003	204.989	-0	0	0	-0	0	0	482.446	273.829	205.964	644.806	29.7332	262.654	589.497	70.7101	196.025	568.8049999999999	95.30119999999999	308.806	505.906	181.44	276.068	621.121	177.001	239.116	619.159	43.5448	213.428	604.985	60.8597	302.622	889.335	61.814	58.5011	1187.05	58.9906	37.5018	1111.82	38.2252	91.83710000000001	1091.93	35.3771	-20.8671	984.83	28.2542	-4.3264	1050.1	121.239	40.7299	1152.44	40.3944	82.7286	1146.23	39.7838	-12.8995	-0	0	0	741.809	1012.48	117.013	-200	0	0	-0	0	200	-0	200	0	
291	3.166667	1033.52	1343.19	73.5843	891.369	1449.28	96.1738	1006.23	1390.88	250.486	923.071	1386.9	-83.1134	1039.77	1184.61	87.39660000000001	780.951	1266.02	121.501	957.586	964.826	250.846	943.563	963.963	-24.6946	752.841	1016.78	153.996	746.575	1011.68	76.8807	754.1950000000001	1063.73	116.89	937.592	1092.79	378.338	-0	0	0	-0	0	0	-0	0	0	939.756	806.71	384.738	933.159	820.145	340.12	900.7809999999999	830.702	404.983	849.894	1053.9	-155.357	-0	0	0	-0	0	0	-0	0	0	885.248	785.955	-153.906	840.71	801.715	-162.644	892.13	803.082	-109.033	-0	0	0	1003.48	597.912	-2.23365	1025.62	692.756	9.41442	-0	0	0	-0	0	0	1068.23	522.061	60.5145	1000.11	446.092	-6.23418	965.2670000000001	177.984	-2.56871	1018.02	302.795	68.0728	-0	0	0	-0	0	0	880.347	781.971	286.131	893.941	565.645	259.071	959.901	695.047	274.804	-0	0	0	-0	0	0	963.2910000000001	455.091	205.573	782.896	448.198	272.243	633.6319999999999	305.622	266.035	774.5599999999999	334.936	203.584	-0	0	0	-0	0	0	497.98	278.911	200.827	659.098	35.5401	264.688	605.204	75.6996	195.894	581.795	101.628	307.842	519.634	187.333	272.627	635.688	182.575	238.441	634.524	48.6663	214.594	618.026	67.0483	303.129	889.302	61.8383	58.4961	1187.09	58.9791	37.4854	1111.73	38.519	92.3758	1092.04	34.9028	-20.3407	985.924	29.0027	-3.48319	1050.2	121.215	40.5873	1152.45	40.3709	82.65000000000001	1146.27	39.7617	-12.89	-0	0	0	749.708	1014.23	115.438	-200	0	0	-0	0	200	-0	200	0	
292	3.175	1041.11	1345.38	72.9256	898.793	1451.3	95.45269999999999	1013.39	1392.92	250.183	930.798	1388.93	-83.706	1047.46	1186.57	86.5818	788.783	1267.75	120.375	965.641	966.487	249.347	951.569	966.049	-26.1743	760.809	1018.47	152.7	754.504	1013.48	75.3854	762.16	1065.46	115.594	942.968	1094.56	376.885	-0	0	0	-0	0	0	-0	0	0	944.159	808.6609999999999	382.885	938.761	821.727	338.22	904.986	832.386	402.697	860.753	1055.27	-156.646	-0	0	0	-0	0	0	-0	0	0	901.87	788.388	-155.563	856.9109999999999	803.102	-163.824	908.587	805.418	-110.699	-0	0	0	1006.55	598.088	-3.62881	1030.18	692.865	7.91561	-0	0	0	-0	0	0	1071.01	521.453	59.0579	1002.42	445.851	-7.13093	965.5410000000001	177.899	-2.89815	1019.28	302.514	66.9562	-0	0	0	-0	0	0	893.345	783.283	284.058	908.5	568.033	258.752	972.549	698.556	274.39	-0	0	0	-0	0	0	980.429	458.887	205.801	798.888	451.618	271.184	649.218	309.541	263.583	790.567	338.284	202.494	-0	0	0	-0	0	0	513.6	282.349	196.228	675.178	41.1196	265.994	622.287	79.8565	195.765	596.881	107.108	306.96	534.563	191.977	269.566	651.269	187.55	237.338	651.453	53.2907	215.409	633.55	72.7988	303.362	889.349	61.9513	58.4495	1186.77	58.8901	36.7752	1111.84	38.2223	91.64109999999999	1091.86	35.2428	-21.0436	985.039	28.474	-4.33113	1050.33	121.286	40.4538	1152.43	40.4876	82.563	1146.32	39.6775	-12.9552	-0	0	0	757.657	1015.98	114.043	-200	0	0	-0	0	200	-0	200	0	
